{"asset":{"version":"2.0","generator":"PONS Kart original sample character"},"scene":0,"scenes":[{"nodes":[0]}],"nodes":[{"name":"Sample Robot Driver","children":[1,2,3]},{"mesh":0,"translation":[0,0.35,0],"scale":[0.65,0.7,0.45]},{"mesh":1,"translation":[0,0.96,0],"scale":[0.8,0.62,0.68]},{"mesh":2,"translation":[0,0.98,0.35],"scale":[0.62,0.2,0.04]}],"meshes":[{"primitives":[{"attributes":{"POSITION":0,"NORMAL":1},"indices":2,"material":0}]},{"primitives":[{"attributes":{"POSITION":0,"NORMAL":1},"indices":2,"material":1}]},{"primitives":[{"attributes":{"POSITION":0,"NORMAL":1},"indices":2,"material":2}]}],"materials":[{"pbrMetallicRoughness":{"baseColorFactor":[0.93,0.91,0.84,1],"metallicFactor":0,"roughnessFactor":0.8}},{"pbrMetallicRoughness":{"baseColorFactor":[1,0.45,0.64,1],"metallicFactor":0,"roughnessFactor":0.5}},{"pbrMetallicRoughness":{"baseColorFactor":[0.08,0.18,0.23,1],"metallicFactor":0.2,"roughnessFactor":0.3}}],"buffers":[{"byteLength":648,"uri":"data:application/octet-stream;base64,"}],"bufferViews":[{"buffer":0,"byteOffset":0,"byteLength":288},{"buffer":0,"byteOffset":288,"byteLength":288},{"buffer":0,"byteOffset":576,"byteLength":72}],"accessors":[{"bufferView":0,"componentType":5126,"count":24,"type":"VEC3","min":[-0.5,-0.5,-0.5],"max":[0.5,0.5,0.5]},{"bufferView":1,"componentType":5126,"count":24,"type":"VEC3"},{"bufferView":2,"componentType":5123,"count":36,"type":"SCALAR"}]}